<?xml version="1.0" encoding="UTF-8" standalone="no"?>
<!-- Created with Inkscape (http://www.inkscape.org/) -->

<svg
   xmlns:dc="http://purl.org/dc/elements/1.1/"
   xmlns:cc="http://creativecommons.org/ns#"
   xmlns:rdf="http://www.w3.org/1999/02/22-rdf-syntax-ns#"
   xmlns:svg="http://www.w3.org/2000/svg"
   xmlns="http://www.w3.org/2000/svg"
   xmlns:sodipodi="http://sodipodi.sourceforge.net/DTD/sodipodi-0.dtd"
   xmlns:inkscape="http://www.inkscape.org/namespaces/inkscape"
   width="45"
   height="23"
   id="svg2"
   version="1.1"
   inkscape:version="0.91pre2 r13516"
   viewBox="0 0 45 23"
   sodipodi:docname="ico_switchtimer.svg">
  <defs
     id="defs4" />
  <sodipodi:namedview
     id="base"
     pagecolor="#ffffff"
     bordercolor="#666666"
     borderopacity="1.0"
     inkscape:pageopacity="0.0"
     inkscape:pageshadow="2"
     inkscape:zoom="5.6"
     inkscape:cx="-13.27009"
     inkscape:cy="16.082332"
     inkscape:document-units="px"
     inkscape:current-layer="layer1"
     showgrid="false"
     inkscape:window-width="1846"
     inkscape:window-height="1058"
     inkscape:window-x="66"
     inkscape:window-y="-8"
     inkscape:window-maximized="1" />
  <metadata
     id="metadata7">
    <rdf:RDF>
      <cc:Work
         rdf:about="">
        <dc:format>image/svg+xml</dc:format>
        <dc:type
           rdf:resource="http://purl.org/dc/dcmitype/StillImage" />
        <dc:title />
      </cc:Work>
    </rdf:RDF>
  </metadata>
  <g
     inkscape:label="Layer 1"
     inkscape:groupmode="layer"
     id="layer1"
     transform="translate(0,-1029.3622)">
    <rect
       style="fill:#ff7f2a;fill-opacity:1;stroke:#ececec;stroke-width:0;stroke-miterlimit:5.69999981;stroke-dasharray:none;stroke-opacity:1"
       id="rect4148"
       width="45"
       height="23"
       x="4.9999999e-006"
       y="1029.3622"
       ry="8.9285717" />
    <g
       style="font-style:normal;font-weight:normal;font-size:12.5px;line-height:125%;font-family:sans-serif;letter-spacing:0px;word-spacing:0px;fill:#ffffff;fill-opacity:1;stroke:none;stroke-width:1px;stroke-linecap:butt;stroke-linejoin:miter;stroke-opacity:1"
       id="text4150">
      <path
         d="m 9.2532783,1042.4468 q 0,0.531 -0.2502442,1.0498 -0.2441406,0.5188 -0.6896973,0.8789 -0.4882812,0.3906 -1.1413574,0.6103 -0.6469726,0.2198 -1.5625,0.2198 -0.982666,0 -1.7700195,-0.1831 -0.78125,-0.1831 -1.5930176,-0.5433 l 0,-1.5136 0.085449,0 q 0.6896973,0.5737 1.5930176,0.885 0.9033203,0.3113 1.6967774,0.3113 1.1230468,0 1.7456054,-0.4212 0.6286621,-0.4211 0.6286621,-1.123 0,-0.6043 -0.2990722,-0.8911 -0.2929688,-0.2869 -0.8972168,-0.4456 -0.4577637,-0.1221 -0.9948731,-0.2014 -0.5310058,-0.079 -1.1291504,-0.2014 -1.2084961,-0.2564 -1.7944336,-0.8728 -0.5798339,-0.6226 -0.5798339,-1.6175 0,-1.1413 0.9643554,-1.8676 0.9643555,-0.7325 2.4475098,-0.7325 0.9582519,0 1.7578125,0.1831 0.7995605,0.1832 1.4160156,0.4517 l 0,1.4282 -0.085449,0 q -0.5187988,-0.4394 -1.3671875,-0.7263 -0.8422852,-0.293 -1.7272949,-0.293 -0.970459,0 -1.5625,0.4029 -0.5859375,0.4028 -0.5859375,1.0376 0,0.5676 0.2929687,0.8911 0.2929688,0.3235 1.0314942,0.4944 0.390625,0.085 1.1108398,0.2075 0.7202149,0.1221 1.2207031,0.2502 1.0131836,0.2686 1.5258789,0.8118 0.5126954,0.5432 0.5126954,1.5198 z"
         style=""
         id="path4138" />
      <path
         d="m 19.678083,1038.2231 -1.776123,6.8177 -1.062012,0 -1.751709,-5.2552 -1.739502,5.2552 -1.055908,0 -1.794434,-6.8177 1.19629,0 1.25122,5.2796 1.702881,-5.2796 0.946045,0 1.745605,5.2796 1.184082,-5.2796 1.153565,0 z"
         style=""
         id="path4140" />
      <path
         d="m 22.565046,1037.0818 -1.293945,0 0,-1.1902 1.293945,0 0,1.1902 z m -0.07324,7.959 -1.147461,0 0,-6.8177 1.147461,0 0,6.8177 z"
         style=""
         id="path4142" />
      <path
         d="m 28.265729,1044.9797 q -0.323486,0.085 -0.708007,0.1404 -0.378418,0.055 -0.677491,0.055 -1.043701,0 -1.586914,-0.5615 -0.543213,-0.5615 -0.543213,-1.8005 l 0,-3.6255 -0.775146,0 0,-0.9644 0.775146,0 0,-1.9592 1.147461,0 0,1.9592 2.368164,0 0,0.9644 -2.368164,0 0,3.1067 q 0,0.5371 0.02441,0.8423 0.02441,0.299 0.170899,0.5615 0.134277,0.2441 0.366211,0.3601 0.238037,0.1099 0.720215,0.1099 0.280761,0 0.585937,-0.079 0.305176,-0.085 0.439453,-0.1404 l 0.06104,0 0,1.0315 z"
         style=""
         id="path4144" />
      <path
         d="m 34.698835,1044.6135 q -0.573731,0.2747 -1.092529,0.4273 -0.512696,0.1526 -1.09253,0.1526 -0.738525,0 -1.35498,-0.2137 -0.616455,-0.2197 -1.055908,-0.6591 -0.445557,-0.4395 -0.689698,-1.1109 -0.24414,-0.6714 -0.24414,-1.5686 0,-1.6723 0.915527,-2.6245 0.921631,-0.9521 2.429199,-0.9521 0.585938,0 1.147461,0.1647 0.567627,0.1648 1.037598,0.4029 l 0,1.2756 -0.06104,0 q -0.524903,-0.4089 -1.086426,-0.6286 -0.55542,-0.2198 -1.086426,-0.2198 -0.976562,0 -1.544189,0.6592 -0.561524,0.6531 -0.561524,1.9226 0,1.2329 0.549317,1.8982 0.55542,0.6592 1.556396,0.6592 0.347901,0 0.708008,-0.092 0.360107,-0.091 0.646973,-0.238 0.250244,-0.1282 0.46997,-0.2686 0.219727,-0.1464 0.347901,-0.2502 l 0.06104,0 0,1.2634 z"
         style=""
         id="path4146" />
      <path
         d="m 41.876569,1045.0408 -1.147461,0 0,-3.8819 q 0,-0.4699 -0.05493,-0.8789 -0.05493,-0.415 -0.201416,-0.6469 -0.152588,-0.2564 -0.439453,-0.3785 -0.286866,-0.1281 -0.744629,-0.1281 -0.469971,0 -0.982666,0.2319 -0.512696,0.2319 -0.982666,0.592 l 0,5.0904 -1.147461,0 0,-9.4971 1.147461,0 0,3.4363 q 0.537109,-0.4456 1.110839,-0.6958 0.573731,-0.2503 1.177979,-0.2503 1.104736,0 1.68457,0.6653 0.579834,0.6653 0.579834,1.9165 l 0,4.4251 z"
         style=""
         id="path4148" />
    </g>
  </g>
</svg>
