<?xml version="1.0" encoding="UTF-8" standalone="no"?>
<!-- Created with Inkscape (http://www.inkscape.org/) -->

<svg
   xmlns:dc="http://purl.org/dc/elements/1.1/"
   xmlns:cc="http://creativecommons.org/ns#"
   xmlns:rdf="http://www.w3.org/1999/02/22-rdf-syntax-ns#"
   xmlns:svg="http://www.w3.org/2000/svg"
   xmlns="http://www.w3.org/2000/svg"
   xmlns:sodipodi="http://sodipodi.sourceforge.net/DTD/sodipodi-0.dtd"
   xmlns:inkscape="http://www.inkscape.org/namespaces/inkscape"
   id="svg2"
   version="1.1"
   inkscape:version="0.48.5 r10040"
   width="43"
   height="23"
   sodipodi:docname="ico_widescreen_on.png">
  <metadata
     id="metadata8">
    <rdf:RDF>
      <cc:Work
         rdf:about="">
        <dc:format>image/svg+xml</dc:format>
        <dc:type
           rdf:resource="http://purl.org/dc/dcmitype/StillImage" />
        <dc:title></dc:title>
      </cc:Work>
    </rdf:RDF>
  </metadata>
  <defs
     id="defs6" />
  <sodipodi:namedview
     pagecolor="#ffffff"
     bordercolor="#666666"
     borderopacity="1"
     objecttolerance="10"
     gridtolerance="10"
     guidetolerance="10"
     inkscape:pageopacity="0"
     inkscape:pageshadow="2"
     inkscape:window-width="2048"
     inkscape:window-height="1481"
     id="namedview4"
     showgrid="false"
     inkscape:zoom="16"
     inkscape:cx="9.0368695"
     inkscape:cy="19.882154"
     inkscape:window-x="-2"
     inkscape:window-y="-3"
     inkscape:window-maximized="1"
     inkscape:current-layer="svg2" />
  <path
     id="path3834"
     style="fill:#ffffff;fill-opacity:1;stroke:none;stroke-width:0.10000000000000001;stroke-linecap:butt;stroke-linejoin:miter;stroke-miterlimit:4;stroke-opacity:1;stroke-dasharray:none"
     d="M 26.31204,9.2549017 29.307138,8.946193 c 1.930719,-0.2361949 1.627499,7.01011 -0.03235,6.862976 L 26.236601,15.553807 z M 0,0 0,23 c 15.021262,-4.846203 26.918346,-4.787057 43,0 L 43,0 C 26.964088,7.5152881 15.064204,7.6359799 0,0 z m 41.5625,2.59375 0,2.90625 -3.96875,1.46875 0,3.6875 3.40625,-0.0625 0,2.4375 -3.40625,0 0,3.65625 4.15625,1.125 0,2.90625 -6.71875,-1.6875 0,-13.875 z M 1.90625,2.8125 4.59375,4.03125 6.375,14.5625 8.03125,5.3125 10.625,6.125 l 2.34375,8.5 1.5,-7.65625 L 17.0625,7.3125 14.71875,17.75 11.34375,18.21875 9.5,10.3125 l -1.53125,8.53125 -3.5,0.8125 z M 30,6.75 c 4.450278,0.058184 3.725392,11.914384 -0.5625,11.3125 l -5.6875,-0.53125 0.0625,-10.0625 5.75,-0.6875 C 29.716868,6.7577574 29.856443,6.7481231 30,6.75 z m -11.4375,0.71875 2.625,0.09375 0,9.84375 -2.625,0.09375 z"
     inkscape:connector-curvature="0"
     sodipodi:nodetypes="cccccccccccccccccccccccccccccccccccccsccccsccccc" />
</svg>
